<?xml version="1.0" encoding="UTF-8"?>
<svg version="1.1" xmlns="http://www.w3.org/2000/svg" width="512" height="512">
<path d="M0 0 C3.25764666 0.76947861 6.36025545 1.84614234 9.5 3 C10.37221191 3.31396729 11.24442383 3.62793457 12.14306641 3.95141602 C20.43601022 7.01797512 28.243046 10.77708653 36 15 C36.61069336 15.32613281 37.22138672 15.65226562 37.85058594 15.98828125 C46.47211143 20.60975034 54.36936145 25.87357349 62 32 C62.51916992 32.41620605 63.03833984 32.83241211 63.57324219 33.26123047 C102.74665037 64.89762729 127.63636821 109.71031784 133.78710938 159.8457489 C134.13554094 163.37154566 134.18176733 166.88495256 134.203125 170.42578125 C134.21018463 171.20664093 134.21724426 171.98750061 134.22451782 172.79202271 C134.44758996 204.7016395 134.44758996 204.7016395 131 219 C130.70198486 220.32064453 130.70198486 220.32064453 130.39794922 221.66796875 C122.46097416 256.53120603 106.39159663 285.93827812 82 312 C81.12859375 312.93714844 80.2571875 313.87429688 79.359375 314.83984375 C53.29024882 342.23398035 15.41375568 361.65517776 -22 367 C-22 379.54 -22 392.08 -22 405 C-19.0815625 404.95359375 -16.163125 404.9071875 -13.15625 404.859375 C-10.27329235 404.8280207 -7.390355 404.80382376 -4.50732422 404.78027344 C-2.53099821 404.76037861 -0.5547293 404.73325277 1.42138672 404.69824219 C19.0919776 404.39342225 33.98981205 405.66122915 49 416 C50.5778125 417.0828125 50.5778125 417.0828125 52.1875 418.1875 C65.8623994 431.8623994 70.19051659 446.07852631 70.24023438 464.88427734 C70.25000019 467.12504372 70.28108807 469.36491486 70.3125 471.60546875 C70.31902529 473.03124458 70.32427762 474.45702693 70.328125 475.8828125 C70.3374707 477.17590332 70.34681641 478.46899414 70.35644531 479.80126953 C70 483 70 483 68.71208048 484.67632544 C65.73241964 486.9800146 62.03824179 486.40998984 58.42126465 486.38095093 C57.53468721 486.3856309 56.64810977 486.39031087 55.73466635 486.39513266 C52.75199698 486.40713693 49.76978248 486.39760423 46.78710938 486.38818359 C44.65362784 486.39224688 42.5201484 486.39758739 40.38667297 486.40411377 C34.58306306 486.41782204 28.77961264 486.41247422 22.97599983 486.40297651 C16.91152634 486.39539809 10.84706679 486.40242046 4.78259277 486.40713501 C-5.40293844 486.41259787 -15.58840446 486.40538703 -25.77392578 486.39111328 C-37.56132243 486.37478579 -49.34856342 486.38007392 -61.13595629 486.3965925 C-71.24384919 486.41019225 -81.35169515 486.41213442 -91.45959425 486.40427649 C-97.50208558 486.39959166 -103.54450368 486.39899733 -109.58699036 486.40888596 C-115.26688257 486.41753136 -120.94657347 486.41157813 -126.62644386 486.39420319 C-128.71505715 486.39022535 -130.80368728 486.39139441 -132.89229393 486.39799118 C-135.73551543 486.40614561 -138.57808509 486.39595921 -141.42126465 486.38095093 C-142.25481555 486.38764309 -143.08836644 486.39433526 -143.94717646 486.40123022 C-149.58980641 486.34314797 -149.58980641 486.34314797 -151.67185831 484.60140479 C-155.45288349 480.04243952 -154.22606074 473.8162181 -154.25 468.1875 C-154.270625 467.01767578 -154.29125 465.84785156 -154.3125 464.64257812 C-154.38916033 447.28859658 -149.5675044 432.89254281 -137.44921875 420.21875 C-125.04430699 408.98112659 -110.05117325 404.61385659 -93.6171875 404.8046875 C-92.20676682 404.80893234 -92.20676682 404.80893234 -90.76785278 404.81326294 C-87.80343173 404.82434022 -84.83932769 404.84942049 -81.875 404.875 C-79.84896274 404.88504593 -77.82292068 404.89416894 -75.796875 404.90234375 C-70.86436686 404.92252586 -65.93253273 404.96169733 -61 405 C-61 393.12 -61 381.24 -61 369 C-65.29 369 -69.58 369 -74 369 C-78.11286669 368.48686844 -82.1179928 367.91561612 -86.1875 367.1875 C-87.18974609 367.02185547 -88.19199219 366.85621094 -89.22460938 366.68554688 C-106.41397572 363.72571446 -106.41397572 363.72571446 -109.75463867 360.09082031 C-112.01613416 356.29402609 -111.37637544 352.65880435 -110.42578125 348.46923828 C-109.66784785 345.64954557 -108.84791102 342.856405 -108 340.0625 C-107.71382813 339.09248047 -107.42765625 338.12246094 -107.1328125 337.12304688 C-106.43025583 334.74606348 -105.71915599 332.37200342 -105 330 C-105.52207031 329.77449463 -106.04414063 329.54898926 -106.58203125 329.31665039 C-148.67852008 311.02845379 -181.81315396 283.23069491 -199.59375 239.81640625 C-201.29210864 235.32703027 -202.76903338 230.77206873 -204.1875 226.1875 C-204.42557373 225.43049805 -204.66364746 224.67349609 -204.90893555 223.89355469 C-209.05715638 209.89458162 -210.53401239 196.09459841 -210.375 181.5625 C-210.37034729 180.79863983 -210.36569458 180.03477966 -210.36090088 179.24777222 C-210.28035671 167.94695332 -209.89108919 156.97428599 -207 146 C-206.79600586 145.20674316 -206.59201172 144.41348633 -206.38183594 143.59619141 C-195.04628899 100.58876328 -168.66419961 66.38422997 -130.3828125 43.84375 C-107.35141759 30.73491044 -81.24476637 24.56611843 -54.875 24.6875 C-54.15676056 24.68766113 -53.43852112 24.68782227 -52.69851685 24.68798828 C-41.25291345 24.70581608 -30.20093003 25.54660203 -19 28 C-18.7733667 27.22285645 -18.5467334 26.44571289 -18.31323242 25.64501953 C-17.28268135 22.13489376 -16.2353311 18.63000421 -15.1875 15.125 C-14.83107422 13.90167969 -14.47464844 12.67835937 -14.10742188 11.41796875 C-13.75615234 10.25136719 -13.40488281 9.08476562 -13.04296875 7.8828125 C-12.72352295 6.80402832 -12.40407715 5.72524414 -12.07495117 4.61376953 C-9.80182775 -0.91338453 -5.21407125 -0.58433557 0 0 Z " fill="#010201" transform="translate(294,13)"/>
<path d="M0 0 C1.75787086 0.00697906 1.75787086 0.00697906 3.55125427 0.01409912 C4.89208824 0.0230722 4.89208824 0.0230722 6.26000977 0.03222656 C6.49375199 18.29518718 6.6700201 36.55775896 6.77813148 54.82189274 C6.82966725 63.30258791 6.89990783 71.78235304 7.0144043 80.26245117 C7.11416868 87.65496061 7.17861259 95.04679651 7.20089471 102.43996042 C7.21391825 106.35398565 7.24445151 110.26608433 7.31731033 114.17949104 C7.38539237 117.86633138 7.40608962 121.55046001 7.39108658 125.23786926 C7.39513331 127.23001284 7.44885207 129.22186323 7.50421143 131.21324158 C7.40552263 139.79960098 7.40552263 139.79960098 4.12978745 143.32444572 C1.57872708 145.13757611 -0.95973154 146.60147423 -3.73999023 148.03222656 C-5.38172688 149.05525135 -7.01701686 150.08878007 -8.64233398 151.13769531 C-10.31904823 152.16776431 -11.99748922 153.19502691 -13.67749023 154.21972656 C-15.53470456 155.36093221 -17.39146646 156.50287445 -19.24780273 157.64550781 C-20.17109375 158.21350098 -21.09438477 158.78149414 -22.0456543 159.36669922 C-26.06595089 161.85188075 -30.06065136 164.3766706 -34.05249023 166.90722656 C-44.21577314 173.34425745 -54.41910773 179.71654734 -64.62426758 186.08691406 C-68.80462868 188.69693735 -72.98376287 191.30892052 -77.16259766 193.92138672 C-79.19230601 195.18993431 -81.22240813 196.45785213 -83.25292969 197.72509766 C-87.75468672 200.53536943 -92.25179923 203.35203427 -96.73217773 206.19628906 C-97.48047852 206.6696167 -98.2287793 207.14294434 -98.99975586 207.63061523 C-100.3680148 208.4968318 -101.73406135 209.36655725 -103.09741211 210.24047852 C-107.51602347 213.03222656 -107.51602347 213.03222656 -109.73999023 213.03222656 C-128.00038775 176.06506625 -135.42423001 137.53979217 -122.41845703 97.30932617 C-117.29644999 82.48374931 -110.36665643 68.44106757 -100.73999023 56.03222656 C-100.03358398 55.10539062 -99.32717773 54.17855469 -98.59936523 53.22363281 C-78.78973211 28.10530304 -51.78498504 10.81943262 -20.73999023 3.03222656 C-18.99008789 2.58169922 -18.99008789 2.58169922 -17.20483398 2.12207031 C-11.34012111 0.7257101 -6.03781813 -0.03108272 0 0 Z " fill="#65D2EF" transform="translate(226.739990234375,52.9677734375)"/>
<path d="M0 0 C38.4407125 0 71.08317194 18.11798537 97.68359375 44.6796875 C115.72069587 63.64537678 127.70179766 88.49143644 133 114 C133.30744141 115.35931641 133.30744141 115.35931641 133.62109375 116.74609375 C139.09580704 145.17684619 133.44951034 174.80082634 122 201 C118.41158524 200.40799995 115.51710533 199.44528489 112.26980591 197.81864929 C110.88633469 197.13109055 110.88633469 197.13109055 109.47491455 196.42964172 C108.47530701 195.92523056 107.47569946 195.4208194 106.44580078 194.90112305 C105.38342194 194.37095581 104.32104309 193.84078857 103.22647095 193.29455566 C100.31920512 191.84216788 97.41468067 190.38446818 94.51135111 188.92423224 C91.46573193 187.39388559 88.41685632 185.87005336 85.36837769 184.34541321 C80.24698478 181.78287154 75.12786559 179.2158361 70.01025391 176.64575195 C63.45719158 173.35480772 56.90046021 170.07124488 50.34251595 166.79004192 C44.68870387 163.96113916 39.03659734 161.12883461 33.38475943 158.29599023 C31.57628174 157.38971011 29.76757447 156.48388945 27.9588356 155.57813072 C24.57583905 153.88318524 21.19420879 152.18554569 17.81298828 150.48706055 C16.8174292 149.98872208 15.82187012 149.49038361 14.79614258 148.97694397 C13.86818878 148.510112 12.94023499 148.04328003 11.98416138 147.56230164 C11.18593019 147.16169871 10.38769901 146.76109579 9.56527901 146.34835339 C6.33174466 144.64875386 3.1716891 142.81239377 0 141 C0 94.47 0 47.94 0 0 Z " fill="#C5E993" transform="translate(247,53)"/>
<path d="M0 0 C3.36399852 1.1340163 6.47816033 2.72536086 9.6411438 4.31982422 C10.37198685 4.68429657 11.1028299 5.04876892 11.8558197 5.42428589 C14.2770379 6.63304042 16.69532157 7.8475442 19.11355591 9.06225586 C20.81095502 9.91155234 22.50850287 10.76055161 24.20619202 11.60926819 C27.77592332 13.3949169 31.34429431 15.18324619 34.91165161 16.97363281 C39.42753176 19.23996709 43.94594536 21.50118965 48.46534061 23.76050472 C51.98147019 25.51870745 55.49654119 27.27901801 59.0112896 29.03997993 C60.67279544 29.8722982 62.33452585 30.70416835 63.99650764 31.53553581 C73.71569084 36.39973177 83.38255949 41.34943318 92.98404789 46.44258022 C99.59597514 49.94764244 106.29402648 53.25497247 113.05886841 56.45483398 C113.87226685 56.8512207 114.68566528 57.24760742 115.52371216 57.65600586 C116.23543579 57.99559326 116.94715942 58.33518066 117.68045044 58.68505859 C119.32839966 59.78491211 119.32839966 59.78491211 120.32839966 62.78491211 C118.99824753 65.07606864 117.65076783 67.10617 116.07839966 69.22241211 C115.62746948 69.84059814 115.17653931 70.45878418 114.71194458 71.09570312 C110.01675004 77.41009743 104.77825196 83.12250707 99.32839966 88.78491211 C98.7599231 89.41655273 98.19144653 90.04819336 97.60574341 90.69897461 C75.43221174 114.63051006 39.11608822 128.35951522 7.16287231 129.94165039 C-4.81082418 130.29936929 -16.93817158 130.43689987 -28.67160034 127.78491211 C-29.41200562 127.61781738 -30.15241089 127.45072266 -30.91525269 127.27856445 C-50.07756988 122.78614609 -68.96093795 114.77907372 -84.67160034 102.78491211 C-85.56234253 102.11331055 -86.45308472 101.44170898 -87.37081909 100.74975586 C-97.47775261 92.80550427 -107.55375583 83.56336237 -114.67160034 72.78491211 C-114.67160034 72.12491211 -114.67160034 71.46491211 -114.67160034 70.78491211 C-113.18478394 69.6784668 -113.18478394 69.6784668 -111.07003784 68.45678711 C-110.28105103 67.99401367 -109.49206421 67.53124023 -108.6791687 67.05444336 C-107.81042114 66.55299805 -106.94167358 66.05155273 -106.04660034 65.53491211 C-98.47831693 61.08386091 -91.00316274 56.51997105 -83.60910034 51.78491211 C-82.22513062 50.89968872 -82.22513062 50.89968872 -80.8132019 49.99658203 C-78.9761329 48.82089015 -77.13937618 47.64471017 -75.302948 46.46801758 C-71.30968319 43.91378046 -67.30473352 41.37823634 -63.29660034 38.84741211 C-62.53726196 38.36788086 -61.77792358 37.88834961 -60.99557495 37.39428711 C-54.56588063 33.3391996 -48.11944458 29.31105713 -41.67160034 25.28491211 C-34.1848161 20.60947471 -26.70129951 15.92908296 -19.23410034 11.22241211 C-18.49611206 10.75834961 -17.75812378 10.29428711 -16.99777222 9.81616211 C-16.29329956 9.37143555 -15.5888269 8.92670898 -14.86300659 8.46850586 C-14.1799646 8.03908691 -13.49692261 7.60966797 -12.79318237 7.16723633 C-11.26589823 6.17212898 -9.76422237 5.13731439 -8.28048706 4.07836914 C-7.49045288 3.51875488 -6.7004187 2.95914063 -5.88644409 2.38256836 C-4.81897949 1.60345093 -4.81897949 1.60345093 -3.72994995 0.80859375 C-1.67160034 -0.21508789 -1.67160034 -0.21508789 0 0 Z " fill="#FCCC55" transform="translate(240.67160034179688,206.215087890625)"/>
<path d="M0 0 C1.62072166 -0.01506844 1.62072166 -0.01506844 3.27418518 -0.03044128 C4.44981018 -0.03627228 5.62543518 -0.04210327 6.83668518 -0.04811096 C8.08289139 -0.05789474 9.3290976 -0.06767853 10.61306763 -0.07775879 C14.73911104 -0.10768085 18.86511991 -0.12940774 22.9912262 -0.14796448 C24.0477224 -0.15291046 24.0477224 -0.15291046 25.12556195 -0.15795636 C31.78122436 -0.18874568 38.43689165 -0.21542527 45.09260464 -0.23237514 C53.57196602 -0.25423027 62.05069019 -0.29610197 70.52979702 -0.36581272 C76.50968104 -0.41328455 82.48939464 -0.43733972 88.46946102 -0.44457203 C92.0315389 -0.44949558 95.59289743 -0.46425513 99.15476799 -0.50431633 C132.5379615 -0.86219859 132.5379615 -0.86219859 144.81544495 11.12547302 C156.05114065 24.25057944 156.55763245 34.5218203 156.55763245 52.16062927 C92.20763245 52.16062927 27.85763245 52.16062927 -38.44236755 52.16062927 C-38.44236755 23.57572361 -38.44236755 23.57572361 -25.78611755 10.44187927 C-18.47603641 3.68350237 -9.92171941 0.07284467 0 0 Z " fill="#C9CFD6" transform="translate(193.44236755371094,432.83937072753906)"/>
<path d="M0 0 C39.6305699 9.55913244 73.85165881 40.42198383 94.84375 74.34375 C98.65247135 80.68705211 101.89689581 87.28889604 105 94 C105.30679688 94.65274902 105.61359375 95.30549805 105.9296875 95.97802734 C123.30116238 133.43990988 125.31404292 178.98892319 112 218 C111.79149414 218.61713867 111.58298828 219.23427734 111.36816406 219.87011719 C104.59814711 239.64957165 94.77377436 259.16684578 81 275 C80.32582031 275.78375 79.65164063 276.5675 78.95703125 277.375 C76.6818843 279.96095938 74.35586377 282.48732177 72 285 C71.5349707 285.49902832 71.06994141 285.99805664 70.59082031 286.51220703 C41.81555439 317.1460721 -0.42289747 337.3193489 -42.59863281 339.11035156 C-45.31672583 339.16976893 -48.03126116 339.18986289 -50.75 339.1875 C-51.73500488 339.18669434 -52.72000977 339.18588867 -53.73486328 339.18505859 C-60.81203891 339.12764871 -67.82643352 338.75584549 -74.875 338.125 C-75.75897461 338.04660889 -76.64294922 337.96821777 -77.55371094 337.88745117 C-89.88390953 336.66265144 -89.88390953 336.66265144 -94 335 C-95.32591677 331.0222497 -94.38574021 328.88301076 -93.25 324.875 C-92.90453125 323.61429687 -92.5590625 322.35359375 -92.203125 321.0546875 C-91.60757813 319.54261719 -91.60757813 319.54261719 -91 318 C-87.75933949 316.91977983 -86.12103474 317.28016305 -82.86157227 317.97998047 C-45.51503488 325.83931916 -3.34494687 317.1028815 28.88867188 296.81103516 C33.05178079 294.03893327 37.04666907 291.06158388 41 288 C41.96679688 287.2575 42.93359375 286.515 43.9296875 285.75 C75.31901292 260.85195151 94.95619889 223.76544651 100.1875 184.1875 C103.63216466 154.23958541 99.17772595 125.09739661 86 98 C85.67016113 97.3105127 85.34032227 96.62102539 85.00048828 95.91064453 C68.33765051 61.45300424 40.76525539 37.75701942 6.38720703 22.10644531 C2.8838306 20.48266724 -0.55687148 18.74749744 -4 17 C-3.45018084 10.95198929 -2.09570426 5.69398894 0 0 Z " fill="#C7CDD3" transform="translate(294,29)"/>
<path d="M0 0 C3.625 0.375 3.625 0.375 6.125 1.9375 C7.82219984 4.69544975 7.81826727 6.09607396 7.27636719 9.2355957 C5.84603084 13.93351076 3.04163952 18.02213926 0.5 22.1875 C-0.78600407 24.34194207 -2.07113094 26.49690794 -3.35546875 28.65234375 C-4.0211084 29.76206543 -4.68674805 30.87178711 -5.37255859 32.01513672 C-8.57775946 37.39309018 -11.69365694 42.82166518 -14.8125 48.25 C-16.05848953 50.41021637 -17.30458413 52.57037213 -18.55078125 54.73046875 C-20.85631964 58.73193948 -23.15583236 62.736755 -25.44807434 66.74584961 C-26.47080066 68.53387857 -27.49504666 70.32102816 -28.51977539 72.10791016 C-29.80458451 74.34931676 -31.08649911 76.59238598 -32.36499023 78.83740234 C-41.02277461 93.9242582 -41.02277461 93.9242582 -45.9375 95.5625 C-49.375 95.375 -49.375 95.375 -51.8125 93.8125 C-53.81032969 90.69588569 -53.68189934 89.03899655 -53.375 85.375 C-52.24853516 82.66870117 -52.24853516 82.66870117 -50.6640625 79.91796875 C-49.79406616 78.38668335 -49.79406616 78.38668335 -48.90649414 76.82446289 C-48.27735107 75.74801514 -47.64820801 74.67156738 -47 73.5625 C-46.35732178 72.44029053 -45.71464355 71.31808105 -45.05249023 70.16186523 C-43.17419337 66.89109051 -41.27850871 63.63115275 -39.375 60.375 C-38.91206543 59.58061523 -38.44913086 58.78623047 -37.97216797 57.96777344 C-36.01826122 54.62021993 -34.04897505 51.28218722 -32.0703125 47.94921875 C-28.5967008 42.08098098 -25.21207748 36.16130576 -21.8125 30.25 C-17.59989189 22.93616614 -13.3866913 15.62360223 -9.0625 8.375 C-8.70792725 7.77671387 -8.35335449 7.17842773 -7.98803711 6.56201172 C-4.33371315 0.48152368 -4.33371315 0.48152368 0 0 Z " fill="#010404" transform="translate(195.375,109.625)"/>
<path d="M0 0 C6.09937211 3.37191703 9.5238895 8.63026225 11.6953125 15.14453125 C12.60217769 24.21318314 10.73892531 30.47765827 5.8203125 38.01953125 C1.74329979 42.09654396 -2.00618995 43.36175616 -7.6796875 43.70703125 C-12.77273164 43.54765708 -15.80607891 42.31482165 -19.6484375 39 C-24.97643031 33.03114013 -26.74431658 25.96798937 -26.640625 18.12890625 C-25.88453479 11.41201185 -22.73356169 5.95986928 -17.6796875 1.51953125 C-12.18610073 -2.11867433 -6.11233687 -2.26881657 0 0 Z " fill="#010304" transform="translate(206.3046875,155.85546875)"/>
<path d="M0 0 C5.86677487 2.77750694 9.95432354 6.28935663 13 12 C15.27356903 18.82070708 15.08796626 27.38702699 12.375 34.0625 C9.60178846 39.3532369 5.47348414 42.63364408 0 45 C-5.85362372 46.04528995 -10.35351586 45.01771051 -15.20703125 41.63671875 C-19.33584896 37.86771086 -22.78956138 32.43206915 -23.2734375 26.83984375 C-23.47994511 18.90518611 -23.55644263 12.21699875 -18 6 C-12.73139192 1.10844898 -7.23661537 -1.86831722 0 0 Z " fill="#020405" transform="translate(150,115)"/>
<path d="M0 0 C3.3 0 6.6 0 10 0 C10 12.21 10 24.42 10 37 C6.7 37 3.4 37 0 37 C0 24.79 0 12.58 0 0 Z " fill="#C1C7CD" transform="translate(247,382)"/>
<path d="M0 0 C2.375 0.3125 2.375 0.3125 5 1 C7.48386059 4.72579089 7.3804212 6.58711402 7 11 C5.5 13.9375 5.5 13.9375 4 16 C1.625 15.75 1.625 15.75 -1 15 C-3.65626152 11.71129527 -3.36255149 8.06057664 -3 4 C-1.5 1.5625 -1.5 1.5625 0 0 Z " fill="#61C9E5" transform="translate(197,169)"/>
<path d="M0 0 C1.875 0.3125 1.875 0.3125 4 1 C6.67548031 5.01322046 6.58740465 8.28373655 6 13 C4.5 15.5625 4.5 15.5625 3 17 C1.125 16.6875 1.125 16.6875 -1 16 C-3.67548031 11.98677954 -3.58740465 8.71626345 -3 4 C-1.5 1.4375 -1.5 1.4375 0 0 Z " fill="#62CCE8" transform="translate(144,129)"/>
</svg>
